# xmcd
#
# Track frame offsets:
#	150
#	21690
#	40392
#	59393
#	78190
#	101397
#	120690
#	136021
#	156229
#	182777
#
# Disc length: 2694 seconds
# Revision: 0
# Processed by: cddbd v1.5.2PL0 Copyright (c) Steve Scherf et al.
# Submitted via: dBpowerAMP V12.0
#
DISCID=810a840a
DTITLE=Dan McKinnon - As Sharp As Possible
DYEAR=2013
DGENRE=Blues
TTITLE0=Ain't Looking Back
TTITLE1=King of the Hill
TTITLE2=Lucky One
TTITLE3=Got It Bad
TTITLE4=Killing Time
TTITLE5=Heart Attack
TTITLE6=Perfect Ten
TTITLE7=The Recipe
TTITLE8=One Regret
TTITLE9=Different Road
EXTD=
EXTT0=
EXTT1=
EXTT2=
EXTT3=
EXTT4=
EXTT5=
EXTT6=
EXTT7=
EXTT8=
EXTT9=
PLAYORDER=
